#!OML:ASF F:\VICON\USERDATA\INSTALL\rory3\rory3.ASF
:FULLY-SPECIFIED
:DEGREES
38
root -1.1500980462021027 18.46257726284759 4.896297479516544 4.061923383798905 4.771123732594895 -1.7992215801153175
lfemur -25.210493436589882 11.443625250650996 -18.116109445384264
ltibia 86.13259039301151
lfoot 16.712286835047387 -15.651055463921397
ltoes -12.67736408328934
rfemur -14.747133469838902 2.9546344627434644 29.380307994135414
rtibia 57.38094370500453
rfoot 8.29039125121641 -7.5664097596559605
rtoes 5.908825876641684
lowerback 16.78116363852709 0.46127371507141907 2.2859482026998217
upperback -0.1896887387907647 1.6750512852783852 2.318907854790516
thorax -8.963266925338925 0.21923135177606218 0.8200920842182038
lowerneck -19.65395581864577 -4.010731099323589 -1.814031714747719
upperneck 13.295487727858431 -3.748497892339791 3.206792132973123
head 7.41306697004398 -2.09911172169737 0.7746574037541107
lclavicle 1.1101655911558916e-16 1.6567445266773435e-15
lhumerus -48.380170293030176 -5.8366795697550335 91.11183824963342
lradius 93.68101050149639
lwrist 35.43123988505458
lhand -27.85409199757355 12.570389023286896
lfingers 7.125019999999998
lthumb -1.6771292332822845 41.014485175756406
rclavicle 1.140691896043085e-16 1.6700254143334132e-15
rhumerus -42.85822974596694 6.751508186900178 -93.11997807680885
rradius 100.58265000433704
rwrist -20.62581737936624
rhand -18.261566249339076 41.47360051267166
rfingers 7.125019999999998
rthumb 7.8152085780929115 11.627494133593629
39
root -1.1459584619448693 18.63530776639592 5.589883413317713 4.040039582069969 4.868365360670075 -2.1112572399687815
lfemur -30.097625116160806 13.17166110200845 -17.436948238194713
ltibia 96.82369951842364
lfoot 11.768012364793599 -14.534506377598259
ltoes -13.325922600092774
rfemur -12.163813387477001 3.162369824032129 29.85781844821025
rtibia 58.00869138406827
rfoot 9.885650529678596 -7.1796782955803975
rtoes 4.0803159435726455
lowerback 16.85700946337584 0.6660932560163098 2.616196247215573
upperback -0.2576086244417292 2.228705794614262 2.1942494980756453
thorax -9.06350500400985 0.4145472306756888 0.2547521153661814
lowerneck -19.5398209058312 -4.202126657482213 -1.79744651252397
upperneck 13.402093778378099 -3.9157412711128154 3.2949619888009343
head 7.367490445505471 -2.2896063460903813 0.8318460360472746
lclavicle 1.1101442610427615e-16 1.656589860253628e-15
lhumerus -49.824849081548386 -4.438115591853788 90.21809278938896
lradius 90.96857066438551
lwrist 35.18287586407725
lhand -27.886461870396523 11.825216477130011
lfingers 7.125019999999998
lthumb -1.714201932043819 40.348424665513264
rclavicle 1.1405999016631764e-16 1.6700183795488693e-15
rhumerus -37.75247450681165 10.20468193151122 -94.4340799022986
rradius 104.75107957130395
rwrist -21.26219773129588
rhand -18.300341637562262 41.380234393284795
rfingers 7.125019999999998
rthumb 7.77273739059818 11.674137023751644
40
root -1.1265326136311071 18.723484422289665 6.465377269882696 4.0582322530290424 4.7457365787987325 -2.1572843782467843
lfemur -34.47694959706041 13.991132690047142 -16.951069630214665
ltibia 104.43261121505847
lfoot 7.875735130615383 -13.126990924382893
ltoes -13.899220545402688
rfemur -10.333401462307865 3.3728462835938453 30.075988481738623
rtibia 58.31687291919421
rfoot 13.132499376516822 -6.865111095107636
rtoes 2.411216239177243
lowerback 16.90823492022107 0.8720269779301737 2.9523219387573456
upperback -0.3134041726741704 2.757958120757169 2.070969901603232
thorax -9.089582309194046 0.6305022147686702 -0.29915695162888556
lowerneck -19.40608044978267 -4.4090922852251895 -1.788754586364234
upperneck 13.616255823492931 -4.100955831734565 3.3617399722831505
head 7.350452032090195 -2.412594863710628 0.8597292111639782
lclavicle 1.110613848552718e-16 1.6566624579740249e-15
lhumerus -51.46189365081184 -3.291719746258156 89.45683987593065
lradius 88.40368400744316
lwrist 35.04408758587896
lhand -27.89799382335858 11.014605247249083
lfingers 7.125019999999998
lthumb -1.7404264099380928 39.60822560679272
rclavicle 1.1405599131702535e-16 1.67001650500526e-15
rhumerus -33.68029353823164 13.760560493177831 -95.45507013589756
rradius 109.00914023673674
rwrist -21.638342796700417
rhand -18.306443408816875 41.46061984035151
rfingers 7.125019999999998
rthumb 7.727964008741143 11.744132390324257
41
root -1.1006837457041636 18.723928634746493 7.363262671979999 4.054117842857686 4.474971806464886 -1.9612887064543734
lfemur -37.80690350069615 13.646186791489061 -16.52602493963601
ltibia 108.57892240397811
lfoot 7.923208186480825 -11.94199030508529
ltoes -14.104571113986383
rfemur -9.804680772322111 3.7613148440483846 30.03906363344391
rtibia 58.44707938649469
rfoot 17.12436065446199 -6.890530628526236
rtoes -0.15169665332062365
lowerback 16.90716650971519 1.0605280810817823 3.302604525709156
upperback -0.4019029479060574 3.2009420966463225 1.9277782791156444
thorax -9.085400464758637 0.8364760757891059 -0.8475859869581467
lowerneck -19.28406868551248 -4.62165880275761 -1.787861214145803
upperneck 13.789717770932995 -4.205638794661145 3.2603555630386234
head 7.349279888446829 -2.4140260176934447 0.8867385294270276
lclavicle 1.1103248812663913e-16 1.6567292781273463e-15
lhumerus -53.31076921480677 -2.3424686332140716 88.74183273932235
lradius 86.12788517149255
lwrist 35.03501484953588
lhand -27.92101909911257 10.208266351125992
lfingers 7.125019999999998
lthumb -1.7640243626354577 38.882937107025114
rclavicle 1.1402795746493232e-16 1.6699974743817468e-15
rhumerus -31.041536194608994 16.388890563433307 -96.0063520381872
rradius 113.0667349510232
rwrist -21.77171140636412
rhand -18.352209948831998 41.59218427052277
rfingers 7.125019999999998
rthumb 7.716413430680036 11.985425255682191
42
root -1.0687942108579973 18.66794652067683 8.134539170938368 4.024866309199022 4.090748588126155 -1.8034217509256045
lfemur -40.25057692242386 12.159252495657547 -16.229842511692606
ltibia 108.87074525399906
lfoot 5.302548836244293 -12.410007448131351
ltoes -14.251161345769267
rfemur -9.867656492501897 4.341764975097324 30.01844109524005
rtibia 58.32556973464608
rfoot 20.180162664046943 -7.175613875518648
rtoes -3.2807969924324945
lowerback 16.841980670962524 1.228920414968593 3.6162354209754843
upperback -0.5190755901203413 3.534906254358152 1.7688993839882723
thorax -9.066899381495857 1.0343373853521949 -1.3451609543918137
lowerneck -19.20294703582277 -4.813605186272122 -1.7850751915206353
upperneck 13.85844718909179 -4.360847597267421 3.210939661661092
head 7.340212359699962 -2.3446530857076984 0.9083911582255702
lclavicle 1.1102856835594814e-16 1.6567272005167188e-15
lhumerus -55.072100387272386 -1.4122640872720265 88.03740813931604
lradius 84.30462883600029
lwrist 35.00478808217857
lhand -27.959833713011964 9.352155437019547
lfingers 7.125019999999998
lthumb -1.7745372049861796 38.14808194546605
rclavicle 1.1403121577095495e-16 1.6699997331105357e-15
rhumerus -29.096594531272586 17.885037682877314 -96.25584832071988
rradius 116.48486578279316
rwrist -21.82766748503367
rhand -18.40847080572528 41.67488529152157
rfingers 7.125019999999998
rthumb 7.6790904321386275 12.127948159869877
43
root -1.029544808140221 18.58789896093997 8.962250218023849 3.9962536048069195 3.7328812652325913 -1.6304340637876615
lfemur -42.081687019258126 9.694531474722197 -16.02805914600106
ltibia 105.57293603922818
lfoot 4.733829375928274 -12.097853761474054
ltoes -14.414122869632632
rfemur -9.73741567726297 4.8980216954751725 30.24467775968462
rtibia 57.740282100482474
rfoot 22.03109141621725 -7.383121429072762
rtoes -6.374363302521729
lowerback 16.700434496396188 1.3885985554108118 3.873163282205939
upperback -0.6366796708573734 3.763128406572913 1.5991424177304612
thorax -9.042839583443397 1.2136082143064626 -1.7742461922873234
lowerneck -19.17691468051553 -4.968550221908453 -1.7765404799892792
upperneck 13.868540932291364 -4.586141356798999 3.2279798823774777
head 7.324769658387723 -2.265417334580682 0.9239898259106287
lclavicle 1.1102519784445175e-16 1.6567230966769458e-15
lhumerus -56.99401796766341 -0.5573254573759012 87.2509829341915
lradius 83.08850508525975
lwrist 34.88049288973149
lhand -27.991463759659496 8.549815280611124
lfingers 7.125019999999998
lthumb -1.7583395330318488 37.4955013517588
rclavicle 1.1403272760104633e-16 1.670000698558608e-15
rhumerus -27.044483461547266 18.506375930256006 -96.43694001689626
rradius 119.13305802873302
rwrist -21.869245660738414
rhand -18.468823043900876 41.742930004927395
rfingers 7.125019999999998
rthumb 7.628856867223965 12.163487352838507
44
root -0.9844767245292841 18.490485911713392 9.819632746470763 4.003298412032266 3.4576441709670775 -1.4719252407174317
lfemur -42.79788998308577 6.589786424379928 -15.695254177700193
ltibia 99.14328690706908
lfoot 3.8742550136789373 -11.762376249700452
ltoes -13.96423328794049
rfemur -9.741171571912687 5.094335408810745 30.52818819289835
rtibia 56.43530860758353
rfoot 23.98300944216259 -7.410976680913169
rtoes -8.546042190984856
lowerback 16.521672202351873 1.5405061438695626 4.046825485078279
upperback -0.7371354345000153 3.921074553123415 1.4210419052950987
thorax -9.017720413570393 1.3584748432005866 -2.1198626464096506
lowerneck -19.218071855102824 -5.091129699617991 -1.7710926448315598
upperneck 13.86287218345358 -4.82980025593759 3.356390939509648
head 7.30601042605598 -2.207648433799985 0.943634078939119
lclavicle 1.1102647275198063e-16 1.6567245584886411e-15
lhumerus -58.99062133003081 0.11730636305836661 86.54741200176618
lradius 82.562133919792
lwrist 34.70754642006565
lhand -28.011664995219675 7.794283144276024
lfingers 7.125019999999998
lthumb -1.7232488142595705 36.89999548993072
rclavicle 1.1403261218197312e-16 1.6700005717867128e-15
rhumerus -25.115422074079504 18.836666948987855 -96.52727908903537
rradius 120.95088098410933
rwrist -21.8000716353003
rhand -18.48762578529975 41.779207980463895
rfingers 7.125019999999998
rthumb 7.586934467455059 12.137196740838808
